<svg width="243" height="194" fill="none" xmlns="http://www.w3.org/2000/svg"><g clip-path="url(#a)"><path d="M122.695 71.095h23.85l12.07 11.92h14.22l8.43 36.94-24.6.1-39 23.53-33.05-53.71 38.08-18.78Z" fill="#99775F" stroke="#000" stroke-width="3" stroke-miterlimit="10" stroke-linecap="round" stroke-linejoin="round"/><path d="m99.365 94.055-30.78 18.3c-3.91 2.32-8.96 1.04-11.28-2.87-2.32-3.91-1.04-8.96 2.87-11.28l30.78-18.3" fill="#99775F"/><path d="m99.365 94.055-30.78 18.3c-3.91 2.32-8.96 1.04-11.28-2.87-2.32-3.91-1.04-8.96 2.87-11.28l30.78-18.3" stroke="#000" stroke-width="3" stroke-miterlimit="10" stroke-linecap="round" stroke-linejoin="round"/><path d="m105.365 110.055-30.78 18.3c-3.91 2.32-8.96 1.04-11.28-2.87-2.32-3.91-1.04-8.96 2.87-11.28l30.78-18.3" fill="#99775F"/><path d="m105.365 110.055-30.78 18.3c-3.91 2.32-8.96 1.04-11.28-2.87-2.32-3.91-1.04-8.96 2.87-11.28l30.78-18.3" stroke="#000" stroke-width="3" stroke-miterlimit="10" stroke-linecap="round" stroke-linejoin="round"/><path d="m115.275 123.265-23.7 14.09c-3.91 2.32-8.96 1.04-11.28-2.87-2.32-3.91-1.04-8.96 2.87-11.28l22.19-13.15" fill="#99775F"/><path d="m115.275 123.265-23.7 14.09c-3.91 2.32-8.96 1.04-11.28-2.87-2.32-3.91-1.04-8.96 2.87-11.28l22.19-13.15" stroke="#000" stroke-width="3" stroke-miterlimit="10" stroke-linecap="round" stroke-linejoin="round"/><path d="m139.525 159.805-7.93-48.62-12.51 17.17-16.79-12.24-12.24 16.8-16.8-12.24-12.24 16.8-16.79-12.24-12.24 16.8-16.72-12.18 1.55 9.88 6.03 38.41 1.55 9.88c.38 2.4 2.63 4.04 5.03 3.66l107.99-16.96a4.403 4.403 0 0 0 3.66-5.05l-1.52-9.31c0-.18.01-.37-.03-.56ZM128.525 92.325l-5.87-35.95c-.18-1.14-.8-2.15-1.73-2.84l-30.28-22.27a4.44 4.44 0 0 0-3.25-.8l-81.33 12.22a4.4 4.4 0 0 0-3.7 5.02l9.87 62.88.08.5 16.71 12.17 12.24-16.8 16.79 12.24 12.24-16.8 16.8 12.24 12.24-16.8 16.79 12.24 12.42-17.04-.02-.21Z" fill="#fff" stroke="#000" stroke-width="3" stroke-miterlimit="10" stroke-linecap="round" stroke-linejoin="round"/><path d="m22.325 95.065 69.76-10.95M20.615 84.205l69.77-10.96M31.615 155.205l46.81-7.35M33.615 167.205l21.6-3.39" stroke="#000" stroke-width="3" stroke-miterlimit="10" stroke-linecap="round" stroke-linejoin="round" stroke-dasharray="17 17"/><path d="m24.205 66.255-1.87-3.19-.81 3.62 2.68-.43Zm6.22-8.44 9.56-1.5.41 2.62-9.56 1.5-.41-2.62Zm-1.59 9.87 9.12-1.43.41 2.62-8.01 1.26-1.55.24-2.02.32-1.21-2.01-4.63.73-.51 2.28-3.5.55 3.22-12.9 3.21-.5 5.47 8.84Zm.57-4.95 9.56-1.5.41 2.63-9.56 1.5-.41-2.63Z" fill="#000"/><path d="m88.875 30.815 3.78 24.07a4.9 4.9 0 0 0 5.59 4.08l23.82-3.74-33.19-24.41Z" fill="#DADEE5" stroke="#000" stroke-width="3" stroke-miterlimit="10" stroke-linecap="round" stroke-linejoin="round"/><path d="M39.605 14.595c-12.45 12.45-12.45 32.63-.01 45.08 12.44 12.45 32.64 12.45 45.09 0 12.45-12.45 12.45-32.64 0-45.09-12.45-12.45-32.63-12.44-45.08.01Zm6.64 38.43c-7.75-7.75-8.66-19.75-2.71-28.5l31.21 31.21c-8.74 5.95-20.74 5.04-28.5-2.71Zm34.51-3.28-31.22-31.21c8.74-5.95 20.75-5.04 28.5 2.71s8.66 19.75 2.72 28.5Z" fill="#DB2E2E"/><path d="M36.605 11.595c-12.45 12.45-12.45 32.63-.01 45.08 12.44 12.45 32.64 12.45 45.09 0 12.45-12.45 12.45-32.64 0-45.09-12.45-12.45-32.63-12.44-45.08.01Zm6.64 38.43c-7.75-7.75-8.66-19.75-2.71-28.5l31.21 31.21c-8.74 5.95-20.74 5.04-28.5-2.71Zm34.51-3.28-31.22-31.21c8.74-5.95 20.75-5.04 28.5 2.71s8.66 19.75 2.72 28.5Z" stroke="#000" stroke-width="3" stroke-miterlimit="10" stroke-linecap="round" stroke-linejoin="round"/><path d="M238.835 135.675h-47.02c-1.85 0-3.35-1.53-3.35-3.41v-48.31c0-1.88 1.5-3.41 3.35-3.41h47.02c1.85 0 3.35 1.53 3.35 3.41v48.3c0 1.89-1.5 3.42-3.35 3.42Z" fill="#3AC95D"/><path d="M183.645 76.155h-17.18v53.05h17.18v-53.05Z" fill="#fff" stroke="#000" stroke-width="3" stroke-miterlimit="10" stroke-linecap="round" stroke-linejoin="round"/><path d="M238.405 76.155h-54.76v55.17h54.76v-55.17Z" stroke="#000" stroke-width="3" stroke-miterlimit="10" stroke-linecap="round" stroke-linejoin="round"/><path d="m132.355 96.245-8.9-8.54a4.724 4.724 0 0 0-5.88-.53l-4.7 3.1c-4.81 3.18-11.24 2.32-15.04-2.01a4.72 4.72 0 0 1 .75-6.92l16.45-12.11c2.25-1.66 4.97-2.55 7.76-2.55h17.57c1.26 0 2.47.5 3.36 1.4l9.2 9.33" fill="#99775F"/><path d="m132.355 96.245-8.9-8.54a4.724 4.724 0 0 0-5.88-.53l-4.7 3.1c-4.81 3.18-11.24 2.32-15.04-2.01a4.72 4.72 0 0 1 .75-6.92l16.45-12.11c2.25-1.66 4.97-2.55 7.76-2.55h17.57c1.26 0 2.47.5 3.36 1.4l9.2 9.33" stroke="#000" stroke-width="3" stroke-miterlimit="10" stroke-linecap="round" stroke-linejoin="round"/><path d="m109.895 84.285-2.43 1.75a7.27 7.27 0 0 1-9.35-1.97" fill="#99775F"/><path d="m109.895 84.285-2.43 1.75a7.27 7.27 0 0 1-9.35-1.97" stroke="#000" stroke-width="3" stroke-miterlimit="10" stroke-linecap="round" stroke-linejoin="round"/><path d="M117.135 149.675s-8.39-20.57-3.4 7.9" stroke="#000" stroke-width="3" stroke-miterlimit="10" stroke-linecap="round" stroke-linejoin="round" stroke-dasharray="17 17"/><path d="M100.995 152.185s7.41.14 6.81-1.19c-2.19-4.85-.29 1.81 18.65-2.77" stroke="#000" stroke-width="3" stroke-miterlimit="10" stroke-linecap="round" stroke-linejoin="round"/><path d="M113.105 160.155c1.34.56 4.21-3.27 6.41-8.55 2.2-5.28 2.9-10.01 1.55-10.57" stroke="#000" stroke-width="3" stroke-miterlimit="10" stroke-linecap="round" stroke-linejoin="round"/></g><defs><clipPath id="a"><path fill="#fff" transform="translate(.815 .755)" d="M0 0h241.37v192.49H0z"/></clipPath></defs></svg>