<svg width="273" height="185" fill="none" xmlns="http://www.w3.org/2000/svg"><g clip-path="url(#a)"><path d="M171.105 101.65h-28.99v24.6h28.99v-24.6Z" fill="#fff"/><path d="M142.115 125.75h11.02V171.23h55.78l-2.94-28.64v-8.13 8.35h15.96v-5.29c0-4-.56-8-1.88-11.77a36.107 36.107 0 0 0-16.32-19.48 35.555 35.555 0 0 0-8.75-3.52c.01-.02.02-.03.03-.05-2.44-.61-5-.95-7.62-1.04" fill="#fff"/><path d="M142.115 125.75h11.02V171.23h55.78l-2.94-28.64v-8.13 8.35h15.96v-5.29c0-4-.56-8-1.88-11.77a36.107 36.107 0 0 0-16.32-19.48 35.555 35.555 0 0 0-8.75-3.52c.01-.02.02-.03.03-.05-2.44-.61-5-.95-7.62-1.04" stroke="#000" stroke-width="3" stroke-miterlimit="10" stroke-linecap="round" stroke-linejoin="round"/><path d="M221.935 142.82h-15.96v31.04h15.96v-31.04Z" fill="#FFE1CC" stroke="#000" stroke-width="3" stroke-miterlimit="10" stroke-linecap="round" stroke-linejoin="round"/><path d="m195.75 144.343-12.357 10.102 22.428 27.43 12.356-10.102-22.427-27.43Z" fill="#FFE1CC" stroke="#000" stroke-width="3" stroke-miterlimit="10" stroke-linecap="round" stroke-linejoin="round"/><path d="M146.875 68.75h67.21V21.34c0-10.96-8.88-19.84-19.84-19.84h-27.53c-10.96 0-19.84 8.88-19.84 19.84v47.41Z" fill="#000" stroke="#000" stroke-width="3" stroke-miterlimit="10" stroke-linecap="round" stroke-linejoin="round"/><path d="M164.355 101.61c2.45-.62 5-.96 7.62-1.05V85.42h14.67v15.14c2.62.08 5.18.43 7.62 1.05-2.84 5.3-15.23 9.25-15.23 9.25-6.39-.12-11.84-3.95-14.68-9.25ZM151.785 77.67a9.67 9.67 0 0 0 9.67-9.67 9.67 9.67 0 0 0-9.67-9.67 9.67 9.67 0 0 0-9.67 9.67 9.67 9.67 0 0 0 9.67 9.67Z" fill="#FFE1CC" stroke="#000" stroke-width="3" stroke-miterlimit="10" stroke-linecap="round" stroke-linejoin="round"/><path d="m149.355 68 7.95 6.49" stroke="#000" stroke-width="3" stroke-miterlimit="10" stroke-linecap="round" stroke-linejoin="round"/><path d="M208.915 77.67a9.67 9.67 0 0 0 9.67-9.67 9.67 9.67 0 0 0-9.67-9.67 9.67 9.67 0 0 0-9.67 9.67 9.67 9.67 0 0 0 9.67 9.67Z" fill="#FFE1CC" stroke="#000" stroke-width="3" stroke-miterlimit="10" stroke-linecap="round" stroke-linejoin="round"/><path d="m211.345 68-7.94 6.49" stroke="#000" stroke-width="3" stroke-miterlimit="10" stroke-linecap="round" stroke-linejoin="round"/><path d="M166.175 22.95c-1.33 4.51-1.49 5.69-4.72 8.38-12.53 10.42-8.61-6.14-8.61-2.59v37.37c0 15.26 12.37 27.63 27.63 27.63s27.63-12.37 27.63-27.63v-30.3" fill="#FFE1CC"/><path d="M166.175 22.95c-1.33 4.51-1.49 5.69-4.72 8.38-12.53 10.42-8.61-6.14-8.61-2.59v37.37c0 15.26 12.37 27.63 27.63 27.63s27.63-12.37 27.63-27.63v-30.3" stroke="#000" stroke-width="3" stroke-miterlimit="10" stroke-linecap="round" stroke-linejoin="round"/><path d="M159.375 45a6.39 6.39 0 0 1 8.06-4.08l-8.06 4.08Z" fill="#fff"/><path d="M159.375 45a6.39 6.39 0 0 1 8.06-4.08" stroke="#000" stroke-width="3" stroke-miterlimit="10" stroke-linecap="round" stroke-linejoin="round"/><path d="M179.315 55.15v5.35a3.03 3.03 0 0 0-2.95 3.02 3.03 3.03 0 0 0 2.95 3.02v.01" fill="#FFE1CC"/><path d="M179.315 55.15v5.35a3.03 3.03 0 0 0-2.95 3.02 3.03 3.03 0 0 0 2.95 3.02v.01" stroke="#000" stroke-width="3" stroke-miterlimit="10" stroke-linecap="round" stroke-linejoin="round"/><path d="M199.475 46.81a6.39 6.39 0 0 0-8.06-4.08l8.06 4.08Z" fill="#fff"/><path d="M199.475 46.81a6.39 6.39 0 0 0-8.06-4.08" stroke="#000" stroke-width="3" stroke-miterlimit="10" stroke-linecap="round" stroke-linejoin="round"/><path d="M187.525 75.71c0 4.54-3.68 8.21-8.21 8.21-4.54 0-8.21-3.68-8.21-8.21h16.42Z" fill="#C48778" stroke="#000" stroke-width="3" stroke-miterlimit="10" stroke-linecap="round" stroke-linejoin="round"/><path d="M191.305 58.51a1.06 1.06 0 1 0 0-2.12 1.06 1.06 0 0 0 0 2.12ZM163.755 58.51a1.06 1.06 0 1 0 0-2.12 1.06 1.06 0 0 0 0 2.12Z" fill="#000" stroke="#000" stroke-width="3" stroke-miterlimit="10" stroke-linecap="round" stroke-linejoin="round"/><path d="M152.915 35.77a21.076 21.076 0 0 0 13.26-10.27l-13.26 10.27Z" fill="#000"/><path d="M152.915 35.77a21.076 21.076 0 0 0 13.26-10.27" stroke="#000" stroke-width="3" stroke-miterlimit="10" stroke-linecap="round" stroke-linejoin="round"/><path d="M163.685 18.32c1.96 10.57 15.59 16.98 34.83 16.98 5.16 0 10.07-.55 14.47-1.53" fill="#000"/><path d="M163.685 18.32c1.96 10.57 15.59 16.98 34.83 16.98 5.16 0 10.07-.55 14.47-1.53M161.735 101.65h-19.62" stroke="#000" stroke-width="3" stroke-miterlimit="10" stroke-linecap="round" stroke-linejoin="round"/><path d="m186.237 116.999 12.572-13.585-6.634-6.14-12.572 13.585 6.634 6.14ZM179.04 110.847l-12.572-13.585-6.635 6.14 12.572 13.585 6.635-6.14ZM226.065 136.28h-21.82v8.16h21.82v-8.16Z" fill="#3AC95D" stroke="#000" stroke-width="3" stroke-miterlimit="10" stroke-linecap="round" stroke-linejoin="round"/><path d="m186.985 130.78-1.3-3.31-1.31 3.31h2.61Zm7.15-7.07h9.29v2.54h-9.29v-2.54Zm-2.97 9.11h8.86v2.54H188.785l-.85-2.08h-4.5l-.83 2.08h-3.4l4.97-11.74h3.11l3.88 9.2Zm1.28-4.6h9.29v2.56h-9.29v-2.56Z" fill="#000"/><path d="M186.985 155.6c-1.2.35-2.46.54-3.77.54-7.36 0-13.32-5.96-13.32-13.32 0-1.82.37-3.55 1.03-5.14h-8.54c-2.26 0-4.09-1.83-4.09-4.09s1.83-4.09 4.09-4.09h19.65c.14 0 .26.03.4.04.26-.02.52-.04.79-.04 7.36 0 13.32 5.96 13.32 13.32 0 2.16-.52 4.21-1.43 6.02" fill="#FFE1CC"/><path d="M186.985 155.6c-1.2.35-2.46.54-3.77.54-7.36 0-13.32-5.96-13.32-13.32 0-1.82.37-3.55 1.03-5.14h-8.54c-2.26 0-4.09-1.83-4.09-4.09s1.83-4.09 4.09-4.09h19.65c.14 0 .26.03.4.04.26-.02.52-.04.79-.04 7.36 0 13.32 5.96 13.32 13.32 0 2.16-.52 4.21-1.43 6.02" stroke="#000" stroke-width="3" stroke-miterlimit="10" stroke-linecap="round" stroke-linejoin="round"/><path d="M173.835 21.13c4.41 4.35 12.55 6.83 24.39 6.83" stroke="#fff" stroke-width="3" stroke-miterlimit="10" stroke-linecap="round" stroke-linejoin="round"/><path d="M168.625 65.03h-7.73c-2.77 0-5.02-2.25-5.02-5.02v-3.37c0-2.77 2.25-5.02 5.02-5.02h7.73c2.77 0 5.02 2.25 5.02 5.02v3.37a5.004 5.004 0 0 1-5.02 5.02ZM197.415 65.03h-7.73c-2.77 0-5.02-2.25-5.02-5.02v-3.37c0-2.77 2.25-5.02 5.02-5.02h7.73c2.77 0 5.02 2.25 5.02 5.02v3.37c0 2.78-2.25 5.02-5.02 5.02ZM173.655 56.44h11M202.435 56.44h6.21M155.875 56.44h-3.56" stroke="#000" stroke-width="3" stroke-miterlimit="10" stroke-linecap="round" stroke-linejoin="round"/><path d="M129.825 156.04H21.795a4.21 4.21 0 0 1-4.21-4.21v-92.8a4.21 4.21 0 0 1 4.21-4.21h108.03a4.21 4.21 0 0 1 4.21 4.21v92.8c.01 2.32-1.88 4.21-4.21 4.21Z" fill="#fff"/><path d="M132.085 84.04H24.995a2.09 2.09 0 0 1-2.09-2.09V62.68c0-1.03.84-1.87 1.87-1.87h107.66c.89 0 1.61.72 1.61 1.61v19.66c0 1.09-.88 1.96-1.96 1.96Z" fill="#DADEE5"/><path d="M129.825 156.83H21.595a4.21 4.21 0 0 1-4.21-4.21V59.03a4.21 4.21 0 0 1 4.21-4.21h108.23a4.21 4.21 0 0 1 4.21 4.21v93.59a4.197 4.197 0 0 1-4.21 4.21ZM17.385 77.82h106.3" stroke="#000" stroke-width="3" stroke-miterlimit="10" stroke-linecap="round" stroke-linejoin="round"/><path d="M41.035 112.28a9.56 9.56 0 1 0 0-19.12 9.56 9.56 0 0 0 0 19.12Z" fill="#FFD44D"/><path d="M45.125 112.28a9.56 9.56 0 1 0 0-19.12 9.56 9.56 0 0 0 0 19.12ZM65.655 96.95h58.03M65.655 107.17h19" stroke="#000" stroke-width="3" stroke-miterlimit="10" stroke-linecap="round" stroke-linejoin="round"/><path d="M41.035 145.99a9.56 9.56 0 0 0 9.56-9.56 9.56 9.56 0 0 0-9.56-9.56 9.56 9.56 0 0 0-9.56 9.56 9.56 9.56 0 0 0 9.56 9.56Z" fill="#7575F9"/><path d="M45.125 145.99a9.56 9.56 0 0 0 9.56-9.56 9.56 9.56 0 0 0-9.56-9.56 9.56 9.56 0 0 0-9.56 9.56 9.56 9.56 0 0 0 9.56 9.56ZM65.655 130.66h58.03M65.655 140.88h19" stroke="#000" stroke-width="3" stroke-miterlimit="10" stroke-linecap="round" stroke-linejoin="round"/><path d="M55.556 184.423h183.3v-14.02h-183.3v14.02Z" fill="#DADEE5"/><path d="M54.345 170.73h185.99" stroke="#000" stroke-width="3" stroke-miterlimit="10" stroke-linecap="round" stroke-linejoin="round"/><path d="M29.755 109.11c0-7.54-6.11-13.65-13.65-13.65s-13.66 6.11-13.66 13.65c0 3.27 1.15 6.27 3.07 8.63 1.17 1.43 2.63 2.63 4.28 3.49 1.89.98 4.03 1.54 6.3 1.54 7.54-.01 13.66-6.12 13.66-13.66Z" fill="#FFE1CC" stroke="#000" stroke-width="3" stroke-miterlimit="10" stroke-linecap="round" stroke-linejoin="round"/><path d="m234.785 110.26-6.29 1.95c-.85.26-1.76-.21-2.02-1.07l-4.83-15.57c-.26-.85.21-1.76 1.07-2.02l6.29-1.95c.85-.26 1.76.21 2.02 1.07l4.83 15.57c.26.85-.22 1.76-1.07 2.02Z" fill="#FFD44D"/><path d="m253.345 104.51-7.17 2.22c-.61.19-1.26-.15-1.45-.76l-9.79-31.6c-.19-.61.15-1.26.76-1.45l7.17-2.22c.61-.19 1.26.15 1.45.76l9.79 31.6c.19.62-.15 1.26-.76 1.45Z" fill="#DB2E2E"/><path d="m270.605 99.16-5.44 1.69c-1.09.34-2.24-.27-2.58-1.36l-13.65-44.04c-.34-1.09.27-2.24 1.36-2.58l5.44-1.69c1.09-.34 2.24.27 2.58 1.36l13.65 44.04c.33 1.09-.28 2.25-1.36 2.58Z" fill="#554DF7"/><path d="m226.245 89.221-9.38 2.907 5.784 18.665 9.38-2.907-5.784-18.665ZM239.678 68.454l-9.38 2.907 10.479 33.814 9.38-2.907-10.479-33.814ZM253.405 48.678l-9.38 2.907 14.868 47.98 9.38-2.907-14.868-47.98Z" stroke="#000" stroke-width="3" stroke-miterlimit="10" stroke-linecap="round" stroke-linejoin="round"/><path d="M29.865 67.63a1.06 1.06 0 1 0 0-2.12 1.06 1.06 0 0 0 0 2.12ZM39.865 67.63a1.06 1.06 0 1 0 0-2.12 1.06 1.06 0 0 0 0 2.12ZM49.865 67.63a1.06 1.06 0 1 0 0-2.12 1.06 1.06 0 0 0 0 2.12Z" fill="#000" stroke="#000" stroke-width="3" stroke-miterlimit="10" stroke-linecap="round" stroke-linejoin="round"/></g><defs><clipPath id="a"><path fill="#fff" transform="translate(.945)" d="M0 0h271.11v184.43H0z"/></clipPath></defs></svg>