<svg width="263" height="190" fill="none" xmlns="http://www.w3.org/2000/svg"><g clip-path="url(#a)"><path d="M190.733 115.07h-67.635c-5.083 0-9.209-4.126-9.209-9.209V44.894h86.053v60.967c0 5.083-4.126 9.209-9.209 9.209Z" fill="#000" stroke="#000" stroke-width="3" stroke-miterlimit="10" stroke-linecap="round" stroke-linejoin="round"/><path d="M162.405 119.32V93.112h-15.373v26.208" fill="#FFE1CC"/><path d="M162.405 119.32V93.112h-15.373v26.208" stroke="#000" stroke-width="3" stroke-miterlimit="10" stroke-linecap="round" stroke-linejoin="round"/><path d="M156.921 87.586c23.76 0 43.021-19.261 43.021-43.021S180.681 1.543 156.921 1.543c-23.761 0-43.022 19.262-43.022 43.022 0 23.76 19.261 43.021 43.022 43.021Z" fill="#000" stroke="#000" stroke-width="3" stroke-miterlimit="10" stroke-linecap="round" stroke-linejoin="round"/><path d="M126.494 82.977c5.473 0 9.909-4.437 9.909-9.91 0-5.472-4.436-9.909-9.909-9.909-5.473 0-9.909 4.437-9.909 9.91 0 5.472 4.436 9.909 9.909 9.909Z" fill="#FFE1CC" stroke="#000" stroke-width="3" stroke-miterlimit="10" stroke-linecap="round" stroke-linejoin="round"/><path d="m124.004 73.067 8.149 6.658" stroke="#000" stroke-width="3" stroke-miterlimit="10" stroke-linecap="round" stroke-linejoin="round"/><path d="M185.063 82.977c5.473 0 9.909-4.437 9.909-9.91 0-5.472-4.436-9.909-9.909-9.909-5.472 0-9.909 4.437-9.909 9.91 0 5.472 4.437 9.909 9.909 9.909Z" fill="#FFE1CC" stroke="#000" stroke-width="3" stroke-miterlimit="10" stroke-linecap="round" stroke-linejoin="round"/><path d="m187.553 73.067-8.149 6.658" stroke="#000" stroke-width="3" stroke-miterlimit="10" stroke-linecap="round" stroke-linejoin="round"/><path d="M173.045 31.919c2.14 6.616 11.195 9.785 11.195 9.785v29.429c0 15.64-12.677 28.328-28.328 28.328-15.64 0-28.327-12.677-28.327-28.328V40.079" fill="#FFE1CC"/><path d="M173.045 31.919c2.14 6.616 11.195 9.785 11.195 9.785v29.429c0 15.64-12.677 28.328-28.328 28.328-15.64 0-28.327-12.677-28.327-28.328V40.079" stroke="#000" stroke-width="3" stroke-miterlimit="10" stroke-linecap="round" stroke-linejoin="round"/><path d="M134.777 53.846a6.558 6.558 0 0 1 8.263-4.188l-8.263 4.188Z" fill="#fff"/><path d="M134.777 53.846a6.558 6.558 0 0 1 8.263-4.188" stroke="#000" stroke-width="3" stroke-miterlimit="10" stroke-linecap="round" stroke-linejoin="round"/><path d="M176.739 52.59a6.558 6.558 0 0 0-8.263-4.187l8.263 4.188Z" fill="#fff"/><path d="M176.739 52.59a6.558 6.558 0 0 0-8.263-4.187" stroke="#000" stroke-width="3" stroke-miterlimit="10" stroke-linecap="round" stroke-linejoin="round"/><path d="M154.719 59.897v5.484a3.106 3.106 0 0 0-3.025 3.097 3.106 3.106 0 0 0 3.025 3.098v.01" fill="#FFE1CC"/><path d="M154.719 59.897v5.484a3.106 3.106 0 0 0-3.025 3.097 3.106 3.106 0 0 0 3.025 3.098v.01" stroke="#000" stroke-width="3" stroke-miterlimit="10" stroke-linecap="round" stroke-linejoin="round"/><path d="M187.697 41.509a23.414 23.414 0 0 1-14.714-11.391l14.714 11.39Z" fill="#000"/><path d="M187.697 41.509a23.414 23.414 0 0 1-14.714-11.391" stroke="#000" stroke-width="3" stroke-miterlimit="10" stroke-linecap="round" stroke-linejoin="round"/><path d="M138.296 61.913a2.894 2.894 0 0 1 2.892-2.891 2.894 2.894 0 0 1 2.891 2.891" fill="#FFE1CC"/><path d="M138.296 61.913a2.894 2.894 0 0 1 2.892-2.891 2.894 2.894 0 0 1 2.891 2.891" stroke="#000" stroke-width="3" stroke-miterlimit="10" stroke-linecap="round" stroke-linejoin="round"/><path d="M165.451 61.913a2.894 2.894 0 0 1 2.891-2.891 2.894 2.894 0 0 1 2.892 2.891" fill="#FFE1CC"/><path d="M165.451 61.913a2.894 2.894 0 0 1 2.891-2.891 2.894 2.894 0 0 1 2.892 2.891" stroke="#000" stroke-width="3" stroke-miterlimit="10" stroke-linecap="round" stroke-linejoin="round"/><path d="M174.773 23.131c-2.171 11.73-17.307 18.84-38.648 18.84-5.731 0-11.164-.606-16.062-1.697" fill="#000"/><path d="M174.773 23.131c-2.171 11.73-17.307 18.84-38.648 18.84-5.731 0-11.164-.606-16.062-1.697" stroke="#000" stroke-width="3" stroke-miterlimit="10" stroke-linecap="round" stroke-linejoin="round"/><path d="M163.167 26.99c-4.497 4.445-12.801 6.966-24.881 6.966" stroke="#fff" stroke-width="3" stroke-miterlimit="10" stroke-linecap="round" stroke-linejoin="round"/><path d="M173.343 79.725a3.982 3.982 0 1 0 0-7.965 3.982 3.982 0 0 0 0 7.965ZM139.665 79.725a3.982 3.982 0 1 0 0-7.965 3.982 3.982 0 0 0 0 7.965Z" fill="#FFB9A4"/><path d="M187.461 37.053c0 1.153-.062 2.295-.185 3.406-1.698-15.825-15.096-28.152-31.374-28.152-16.268 0-29.676 12.316-31.363 28.152a33.89 33.89 0 0 1-.185-3.406c0-17.42 14.128-31.558 31.548-31.558 17.441 0 31.559 14.138 31.559 31.558Z" fill="#3AC95D" stroke="#000" stroke-width="3" stroke-miterlimit="10" stroke-linecap="round" stroke-linejoin="round"/><path d="M144.192 67.521h-7.799a5.169 5.169 0 0 1-5.166-5.165V59a5.169 5.169 0 0 1 5.166-5.165h7.799A5.169 5.169 0 0 1 149.358 59v3.355a5.162 5.162 0 0 1-5.166 5.165ZM173.549 67.521h-7.8a5.169 5.169 0 0 1-5.165-5.165V59a5.169 5.169 0 0 1 5.165-5.165h7.8A5.169 5.169 0 0 1 178.714 59v3.355c.011 2.86-2.304 5.165-5.165 5.165ZM149.358 58.754h11.226M178.725 58.754h6.338M131.217 58.754h-3.632" stroke="#000" stroke-width="3" stroke-miterlimit="10" stroke-linecap="round" stroke-linejoin="round"/><path d="M161.85 79.416c0 3.941-3.19 7.13-7.131 7.13a7.127 7.127 0 0 1-7.131-7.13h14.262Z" fill="#C48778" stroke="#000" stroke-width="3" stroke-miterlimit="10" stroke-linecap="round" stroke-linejoin="round"/><path d="M198.533 143.737c0-4.095-.566-8.201-1.925-12.07-2.973-8.509-8.983-15.599-16.72-19.972a36.35 36.35 0 0 0-8.973-3.612c.01-.02.02-.03.031-.051-2.511-.628-5.125-.978-7.81-1.07l-5.588 6.174a3.017 3.017 0 0 1-4.527-.062l-5.258-6.122c-2.696.092-5.31.442-7.81 1.07h-.195c-3.252.802-6.308 2.058-9.148 3.653.175.267.175.277 0 0-10.321 5.834-17.554 16.494-18.645 28.914h16.062V175.563h56.728l-2.563-26.64v-8.334 8.561h16.361v-5.413h-.02Z" fill="#fff" stroke="#000" stroke-width="3" stroke-miterlimit="10" stroke-linecap="round" stroke-linejoin="round"/><path d="M198.533 149.16h-16.361v30.612h16.361V149.16Z" fill="#FFE1CC" stroke="#000" stroke-width="3" stroke-miterlimit="10" stroke-linecap="round" stroke-linejoin="round"/><path d="m163.311 179-9.57-12.378 12.811-9.909 17.832 23.059-21.073-.772Z" fill="#FFE1CC" stroke="#000" stroke-width="3" stroke-miterlimit="10" stroke-linecap="round" stroke-linejoin="round"/><path d="m161.716 166.786-16.237-3.642c1.667-7.419 9.024-12.08 16.443-10.413 7.419 1.666 12.08 9.024 10.413 16.443" fill="#FFE1CC"/><path d="m161.716 166.786-16.237-3.642c1.667-7.419 9.024-12.08 16.443-10.413 7.419 1.666 12.08 9.024 10.413 16.443" stroke="#000" stroke-width="3" stroke-miterlimit="10" stroke-linecap="round" stroke-linejoin="round"/><path d="m160.338 118.576 9.281-10.029-4.893-4.529-9.281 10.029 4.893 4.529ZM155.034 114.027l-9.281-10.029-4.893 4.529 9.281 10.028 4.893-4.528ZM200.025 143.614h-17.853v6.668h17.853v-6.668Z" fill="#3AC95D" stroke="#000" stroke-width="3" stroke-miterlimit="10" stroke-linecap="round" stroke-linejoin="round"/><path d="m161.037 136.596-1.328-3.375-1.337 3.375h2.665Zm7.295-7.223h9.477v2.593h-9.477v-2.593Zm-3.035 9.302h9.034v2.593h-11.483l-.865-2.12h-4.589l-.844 2.12h-3.467l5.073-11.977h3.179l3.962 9.384Zm1.306-4.703h9.477v2.604h-9.477v-2.604Z" fill="#000"/><path d="M71.351 74.91a8.142 8.142 0 0 1-8.118 8.118 8.135 8.135 0 0 1-8.119-8.119V66.78h8.119c4.476.01 8.108 3.643 8.118 8.13Z" fill="#FFCF48"/><path d="M50.957 54.577v20.332a8.135 8.135 0 0 1-8.118 8.119 8.142 8.142 0 0 1-8.12-8.119V54.577c.021-4.476 3.643-8.109 8.12-8.119a8.135 8.135 0 0 1 8.118 8.119ZM30.635 46.458v8.119a8.142 8.142 0 0 1-8.119 8.118 8.135 8.135 0 0 1-8.118-8.118 8.142 8.142 0 0 1 8.118-8.119h8.119Z" fill="#DF1D5A"/><path d="M91.684 54.577c-.01 4.476-3.643 8.108-8.129 8.118H63.233a8.135 8.135 0 0 1-8.119-8.118 8.142 8.142 0 0 1 8.119-8.119h20.322c4.486.01 8.119 3.643 8.129 8.119Z" fill="#FFCF48"/><path d="M50.957 34.183A8.129 8.129 0 0 1 42.84 42.3H22.516a8.135 8.135 0 0 1-8.118-8.118c.01-4.477 3.642-8.099 8.118-8.119H42.84c4.486.02 8.108 3.642 8.118 8.119ZM50.957 13.86v8.119H42.84c-4.477-.01-8.099-3.643-8.12-8.119a8.142 8.142 0 0 1 8.12-8.118 8.135 8.135 0 0 1 8.118 8.118Z" fill="#36C5F1"/><path d="M91.684 34.183c-.01 4.486-3.643 8.108-8.129 8.118h-8.119v-8.118c.01-4.477 3.643-8.099 8.119-8.119 4.486.02 8.119 3.642 8.129 8.119ZM71.351 13.86v20.322c-.01 4.487-3.642 8.12-8.118 8.12a8.135 8.135 0 0 1-8.119-8.12V13.86a8.135 8.135 0 0 1 8.119-8.118 8.135 8.135 0 0 1 8.118 8.118Z" fill="#2DB67E"/><path d="M34.915 52.95c-.01 4.477-3.632 8.11-8.118 8.13-4.487-.01-8.108-3.643-8.119-8.13a8.142 8.142 0 0 1 8.119-8.118h8.118v8.119Zm4.096 0a8.142 8.142 0 0 1 8.118-8.118 8.135 8.135 0 0 1 8.119 8.119v20.333a8.142 8.142 0 0 1-8.119 8.118 8.142 8.142 0 0 1-8.118-8.118V52.95Zm8.118-32.597a8.142 8.142 0 0 1-8.118-8.119 8.142 8.142 0 0 1 8.118-8.118 8.142 8.142 0 0 1 8.119 8.118v8.12h-8.119Zm0 4.095a8.142 8.142 0 0 1 8.119 8.119 8.142 8.142 0 0 1-8.119 8.119H26.807a8.16 8.16 0 0 1-8.129-8.13 8.142 8.142 0 0 1 8.119-8.118l20.332.01Zm32.598 8.109a8.142 8.142 0 0 1 8.119-8.119 8.142 8.142 0 0 1 8.118 8.119 8.142 8.142 0 0 1-8.118 8.118h-8.119v-8.118Zm-4.085 0c-.01 4.476-3.642 8.108-8.129 8.118a8.142 8.142 0 0 1-8.118-8.118V12.234a8.135 8.135 0 0 1 8.118-8.118c4.487.01 8.119 3.642 8.13 8.118v20.323Zm-8.129 32.598c4.487.01 8.119 3.642 8.13 8.118-.011 4.487-3.643 8.109-8.13 8.119a8.142 8.142 0 0 1-8.118-8.119v-8.118h8.118Zm0-4.086c-4.476-.01-8.108-3.642-8.118-8.128a8.142 8.142 0 0 1 8.118-8.119h20.333a8.135 8.135 0 0 1 8.118 8.119c-.01 4.486-3.642 8.118-8.118 8.128H67.513Z" stroke="#000" stroke-width="3" stroke-miterlimit="10" stroke-linecap="round" stroke-linejoin="round"/><path d="M163.28 162.506h-28.153v-49.751c0-3.355-2.747-6.081-6.143-6.081H38.26c-3.396 0-6.143 2.716-6.143 6.081v57.324c0 3.355 2.747 6.081 6.143 6.081h90.724c1.533 0 36.632.525 36.632.525 3.395 0 5.7-3.663 5.7-7.018-.01-3.364-4.64-7.161-8.036-7.161Z" fill="#DADEE5"/><path d="M123.006 176.634H29.719a5.837 5.837 0 0 1-5.834-5.835V112.57a5.837 5.837 0 0 1 5.834-5.835h93.287a5.836 5.836 0 0 1 5.834 5.835v58.229a5.836 5.836 0 0 1-5.834 5.835Z" fill="#DADEE5"/><path d="M113.56 176.675h50.728a7.014 7.014 0 0 0 7.018-7.018 7.013 7.013 0 0 0-7.018-7.017H136.3v-54.845a7.029 7.029 0 0 0-3.169-5.875M137.278 168.546h3.416M147.567 168.546h3.417" stroke="#000" stroke-width="3" stroke-miterlimit="10" stroke-linecap="round" stroke-linejoin="round"/><path d="M122.43 176.634H37.066a5.837 5.837 0 0 1-5.834-5.835v-64.455a5.836 5.836 0 0 1 5.834-5.834h85.353a5.837 5.837 0 0 1 5.835 5.834v64.455a5.828 5.828 0 0 1-5.824 5.835Z" fill="#fff" stroke="#000" stroke-width="3" stroke-miterlimit="10" stroke-linecap="round" stroke-linejoin="round"/><path d="M78.585 145.548a7.12 7.12 0 1 0 0-14.24 7.12 7.12 0 0 0 0 14.24Z" fill="#3AC95D" stroke="#000" stroke-width="3" stroke-miterlimit="10" stroke-linecap="round" stroke-linejoin="round"/><path d="M224.102 175.821H4.026v14.189h220.076v-14.189Z" fill="#DADEE5"/><path d="M225.564 176.14H2.256" stroke="#000" stroke-width="3" stroke-miterlimit="10" stroke-linecap="round" stroke-linejoin="round"/><path d="M235.658 40.984c-9.209.947-16.649 8.376-17.657 17.575a19.811 19.811 0 0 0 2.994 12.862l-8.047 8.047c-.432.432-.123 1.173.484 1.173h23.821c10.485 0 19.561-7.913 20.332-18.378.926-12.368-9.487-22.565-21.927-21.279Z" fill="#3AC95D"/><path d="M240.854 43.958c-10.979 0-19.89 8.9-19.89 19.89 0 3.93 1.153 7.573 3.118 10.66l-9.23 9.23h25.992c10.979 0 19.89-8.9 19.89-19.89.01-10.99-8.89-19.89-19.88-19.89Z" stroke="#000" stroke-width="3" stroke-miterlimit="10" stroke-linecap="round" stroke-linejoin="round"/><path d="M236.213 63.313h-1.028M241.091 63.313h6.781M241.091 69.487h6.781" stroke="#000" stroke-width="3" stroke-miterlimit="10" stroke-linecap="round" stroke-linejoin="round" stroke-dasharray="42 42"/></g><defs><clipPath id="a"><path fill="#fff" transform="translate(.712)" d="M0 0h261.575v190H0z"/></clipPath><clipPath id="b"><path fill="#fff" transform="translate(120.582 188)" d="M0 0h279.837v190H0z"/></clipPath></defs></svg>